<svg width="200" height="200" viewBox="0 0 200 200" fill="none" xmlns="http://www.w3.org/2000/svg">
  <!-- Main circuit paths -->
  <path d="M20,100 L60,100 L60,50 L100,50 L100,20" stroke="#4FD1C5" stroke-width="1.5" stroke-opacity="0.4" fill="none"/>
  <path d="M180,100 L140,100 L140,50 L100,50" stroke="#4FD1C5" stroke-width="1.5" stroke-opacity="0.4" fill="none"/>
  <path d="M100,180 L100,150 L140,150 L140,100" stroke="#805AD5" stroke-width="1.5" stroke-opacity="0.4" fill="none"/>
  <path d="M100,180 L100,150 L60,150 L60,100" stroke="#805AD5" stroke-width="1.5" stroke-opacity="0.4" fill="none"/>
  
  <!-- Connection nodes -->
  <circle cx="100" cy="50" r="3" fill="#4FD1C5" fill-opacity="0.6"/>
  <circle cx="60" cy="100" r="3" fill="#4FD1C5" fill-opacity="0.6"/>
  <circle cx="140" cy="100" r="3" fill="#4FD1C5" fill-opacity="0.6"/>
  <circle cx="100" cy="150" r="3" fill="#805AD5" fill-opacity="0.6"/>
  
  <!-- Diagonal connections -->
  <path d="M30,30 L70,70" stroke="#4FD1C5" stroke-width="1" stroke-opacity="0.3" fill="none"/>
  <path d="M170,30 L130,70" stroke="#4FD1C5" stroke-width="1" stroke-opacity="0.3" fill="none"/>
  <path d="M170,170 L130,130" stroke="#805AD5" stroke-width="1" stroke-opacity="0.3" fill="none"/>
  <path d="M30,170 L70,130" stroke="#805AD5" stroke-width="1" stroke-opacity="0.3" fill="none"/>
  
  <!-- Small connection dots -->
  <circle cx="70" cy="70" r="2" fill="#4FD1C5" fill-opacity="0.5"/>
  <circle cx="130" cy="70" r="2" fill="#4FD1C5" fill-opacity="0.5"/>
  <circle cx="70" cy="130" r="2" fill="#805AD5" fill-opacity="0.5"/>
  <circle cx="130" cy="130" r="2" fill="#805AD5" fill-opacity="0.5"/>
  
  <!-- Center connections -->
  <path d="M100,100 m-15,0 h30" stroke="#38B2AC" stroke-width="1.5" stroke-opacity="0.4" fill="none"/>
  <path d="M100,100 m0,-15 v30" stroke="#6B46C1" stroke-width="1.5" stroke-opacity="0.4" fill="none"/>
  <circle cx="100" cy="100" r="5" fill="url(#grad)" fill-opacity="0.7"/>
  
  <!-- Smaller detail elements -->
  <path d="M40,40 L40,60 L30,60" stroke="#4FD1C5" stroke-width="0.75" stroke-opacity="0.3" fill="none"/>
  <path d="M160,40 L160,60 L170,60" stroke="#4FD1C5" stroke-width="0.75" stroke-opacity="0.3" fill="none"/>
  <path d="M160,160 L160,140 L170,140" stroke="#805AD5" stroke-width="0.75" stroke-opacity="0.3" fill="none"/>
  <path d="M40,160 L40,140 L30,140" stroke="#805AD5" stroke-width="0.75" stroke-opacity="0.3" fill="none"/>
  
  <!-- Gradient definition -->
  <defs>
    <linearGradient id="grad" x1="0%" y1="0%" x2="100%" y2="100%">
      <stop offset="0%" stop-color="#4FD1C5" stop-opacity="0.7"/>
      <stop offset="100%" stop-color="#805AD5" stop-opacity="0.7"/>
    </linearGradient>
  </defs>
</svg> 