<svg xmlns="http://www.w3.org/2000/svg" viewBox="0 0 400 300" fill="none">
  <defs>
    <linearGradient id="bg" x1="0%" y1="0%" x2="100%" y2="100%">
      <stop offset="0%" style="stop-color:#1e1b4b;stop-opacity:1" />
      <stop offset="50%" style="stop-color:#312e81;stop-opacity:1" />
      <stop offset="100%" style="stop-color:#0f172a;stop-opacity:1" />
    </linearGradient>
    <linearGradient id="icon" x1="0%" y1="0%" x2="100%" y2="100%">
      <stop offset="0%" style="stop-color:#8b5cf6;stop-opacity:1" />
      <stop offset="100%" style="stop-color:#06b6d4;stop-opacity:1" />
    </linearGradient>
  </defs>
  <rect width="400" height="300" fill="url(#bg)"/>
  <g transform="translate(150, 100)">
    <rect x="0" y="0" width="100" height="100" rx="16" fill="rgba(139, 92, 246, 0.2)"/>
    <path d="M30 70L28 80L24 84H76L72 80L70 70M20 60H80M26 76H74C78.4183 76 82 72.4183 82 68V28C82 23.5817 78.4183 20 74 20H26C21.5817 20 18 23.5817 18 28V68C18 72.4183 21.5817 76 26 76Z"
          stroke="url(#icon)"
          stroke-width="3"
          stroke-linecap="round"
          stroke-linejoin="round"
          fill="none"/>
  </g>
</svg>
