<svg xmlns="http://www.w3.org/2000/svg" viewBox="0 0 24 24">
  <path fill="#0066DA" d="M4.433 22.396l3-5.196a.5.5 0 01.866-.001l3.001 5.195a.5.5 0 01-.433.75H4.865a.5.5 0 01-.432-.748z"/>
  <path fill="#00AC47" d="M15.567 22.396l3-5.196a.5.5 0 01.866-.001l3.001 5.195a.5.5 0 01-.433.75h-6.002a.5.5 0 01-.432-.748z"/>
  <path fill="#EA4335" d="M8.3 18.029l-4-6.928a.5.5 0 010-.5l8-13.856a.5.5 0 01.866 0l8 13.856a.5.5 0 010 .5l-4 6.928a.5.5 0 01-.433.25H8.732a.5.5 0 01-.433-.25z"/>
  <path fill="#FFBA00" d="M8.3 18.029h7.4l-3.7-6.601z"/>
</svg> 