<svg xmlns="http://www.w3.org/2000/svg" viewBox="0 0 24 24">
  <path d="M12.004 0c-6.629 0-12 5.371-12 12s5.371 12 12 12 12-5.371 12-12-5.371-12-12-12zm0 .75c6.213 0 11.25 5.037 11.25 11.25S18.217 23.25 12.004 23.25.754 18.213.754 12 5.791.75 12.004.75z" fill="#2684FF"/>
  <path d="M11.12 11.47l3.33-3.32c.64-.64 1.67-.64 2.3 0 .64.63.64 1.67 0 2.3l-3.33 3.33 3.32 3.33c.64.63.64 1.67 0 2.3-.63.64-1.66.64-2.3 0l-3.32-3.33-3.33 3.33c-.64.64-1.67.64-2.3 0-.32-.31-.48-.73-.48-1.15 0-.42.16-.83.48-1.15l3.32-3.33-3.32-3.32c-.64-.64-.64-1.67 0-2.3.63-.64 1.66-.64 2.3 0l3.33 3.31z" fill="#2684FF"/>
</svg> 