<svg xmlns="http://www.w3.org/2000/svg" viewBox="0 0 24 24" fill="white">
  <path d="M13.479 9.883c-1.626-.604-2.512-1.067-2.512-1.803 0-.624.518-1.008 1.429-1.008 1.625 0 3.287.649 4.433 1.223l.665-4.113c-.907-.428-2.769-1.012-5.293-1.012-1.845 0-3.387.483-4.535 1.395-1.183.93-1.807 2.234-1.807 3.851 0 2.909 1.77 4.156 4.652 5.212 1.855.665 2.475 1.14 2.475 1.864 0 .713-.594 1.119-1.652 1.119-1.311 0-3.475-.665-4.913-1.528l-.667 4.155c1.202.756 3.417 1.528 5.773 1.528 1.953 0 3.582-.464 4.729-1.359 1.257-.972 1.914-2.419 1.914-4.249 0-2.978-1.806-4.232-4.691-5.275"/>
</svg> 